<svg width="16" height="16" viewBox="0 0 16 16" fill="none" xmlns="http://www.w3.org/2000/svg">
<path d="M13.5 11.5C13.5 9.75625 12.4781 8.25 11 7.54844V4.95781C11 4.72187 10.9172 4.49375 10.7641 4.31406L8.38281 1.49063C8.28281 1.37188 8.14062 1.3125 8 1.3125C7.85938 1.3125 7.71719 1.37188 7.61719 1.49063L5.23594 4.31406C5.08385 4.49412 5.00029 4.72212 5 4.95781V7.54844C3.52188 8.25 2.5 9.75625 2.5 11.5H4.94531C4.90937 11.6125 4.89062 11.7344 4.89062 11.8719C4.89062 12.2172 5.00937 12.5547 5.225 12.8219C5.401 13.0404 5.6341 13.2059 5.89844 13.3C6.25938 14.1438 7.07969 14.6875 8 14.6875C8.45469 14.6875 8.89531 14.5531 9.27188 14.3C9.64063 14.0531 9.92656 13.7078 10.1 13.3C10.3642 13.2065 10.5973 13.0415 10.7734 12.8234C10.9894 12.5538 11.1073 12.2189 11.1078 11.8734C11.1078 11.7422 11.0906 11.6172 11.0594 11.5016H13.5V11.5ZM11.9109 9.70938C12.0578 9.9375 12.1766 10.1828 12.2625 10.4375H10.9375V8.72969C11.3273 8.98408 11.659 9.31793 11.9109 9.70938ZM6.0625 7.54844V4.98125L8 2.68438L9.9375 4.98125V10.4375H6.0625V7.54844ZM3.7375 10.4375C3.82344 10.1828 3.94219 9.9375 4.08906 9.70938C4.34375 9.31563 4.675 8.98281 5.0625 8.72969V10.4375H3.7375ZM9.81406 12.2531C9.73281 12.3 9.63906 12.3187 9.54688 12.3062L9.24219 12.2688L9.19844 12.5719C9.11406 13.1641 8.59844 13.6109 8 13.6109C7.40156 13.6109 6.88594 13.1641 6.80156 12.5719L6.75781 12.2672L6.45312 12.3062C6.3605 12.3173 6.26678 12.2981 6.18594 12.2516C6.05 12.1734 5.96562 12.0281 5.96562 11.8703C5.96562 11.7047 6.05781 11.5672 6.19375 11.4984H9.80781C9.94531 11.5688 10.0359 11.7063 10.0359 11.8703C10.0344 12.0297 9.95 12.1766 9.81406 12.2531ZM7.25 6.25C7.25 6.44891 7.32902 6.63968 7.46967 6.78033C7.61032 6.92098 7.80109 7 8 7C8.19891 7 8.38968 6.92098 8.53033 6.78033C8.67098 6.63968 8.75 6.44891 8.75 6.25C8.75 6.05109 8.67098 5.86032 8.53033 5.71967C8.38968 5.57902 8.19891 5.5 8 5.5C7.80109 5.5 7.61032 5.57902 7.46967 5.71967C7.32902 5.86032 7.25 6.05109 7.25 6.25Z" fill="#3E3E3F"/>
</svg>
