<svg width="20" height="19" viewBox="0 0 20 19" fill="none" xmlns="http://www.w3.org/2000/svg">
<path d="M19.3187 17.5273L13.232 11.4406C14.1766 10.2195 14.6875 8.72656 14.6875 7.15625C14.6875 5.27656 13.9539 3.51406 12.6273 2.18516C11.3008 0.85625 9.53359 0.125 7.65625 0.125C5.77891 0.125 4.01172 0.858594 2.68516 2.18516C1.35625 3.51172 0.625 5.27656 0.625 7.15625C0.625 9.03359 1.35859 10.8008 2.68516 12.1273C4.01172 13.4562 5.77656 14.1875 7.65625 14.1875C9.22656 14.1875 10.7172 13.6766 11.9383 12.7344L18.025 18.8187C18.0428 18.8366 18.064 18.8508 18.0874 18.8604C18.1107 18.8701 18.1357 18.8751 18.1609 18.8751C18.1862 18.8751 18.2112 18.8701 18.2345 18.8604C18.2578 18.8508 18.279 18.8366 18.2969 18.8187L19.3187 17.7992C19.3366 17.7814 19.3508 17.7602 19.3604 17.7369C19.3701 17.7135 19.3751 17.6885 19.3751 17.6633C19.3751 17.638 19.3701 17.613 19.3604 17.5897C19.3508 17.5664 19.3366 17.5452 19.3187 17.5273ZM11.3688 10.8688C10.375 11.8602 9.05781 12.4062 7.65625 12.4062C6.25469 12.4062 4.9375 11.8602 3.94375 10.8688C2.95234 9.875 2.40625 8.55781 2.40625 7.15625C2.40625 5.75469 2.95234 4.43516 3.94375 3.44375C4.9375 2.45234 6.25469 1.90625 7.65625 1.90625C9.05781 1.90625 10.3773 2.45 11.3688 3.44375C12.3602 4.4375 12.9062 5.75469 12.9062 7.15625C12.9062 8.55781 12.3602 9.87734 11.3688 10.8688Z" fill="white"/>
</svg>
