<svg width="12" height="14" viewBox="0 0 12 14" fill="none" xmlns="http://www.w3.org/2000/svg">
<path d="M11.5 10.5C11.5 8.75625 10.4781 7.25 9 6.54844V3.95781C9 3.72187 8.91719 3.49375 8.76406 3.31406L6.38281 0.490625C6.28281 0.371875 6.14062 0.3125 6 0.3125C5.85938 0.3125 5.71719 0.371875 5.61719 0.490625L3.23594 3.31406C3.08385 3.49412 3.00029 3.72212 3 3.95781V6.54844C1.52188 7.25 0.5 8.75625 0.5 10.5H2.94531C2.90937 10.6125 2.89062 10.7344 2.89062 10.8719C2.89062 11.2172 3.00937 11.5547 3.225 11.8219C3.401 12.0404 3.6341 12.2059 3.89844 12.3C4.25938 13.1438 5.07969 13.6875 6 13.6875C6.45469 13.6875 6.89531 13.5531 7.27188 13.3C7.64063 13.0531 7.92656 12.7078 8.1 12.3C8.36423 12.2065 8.59734 12.0415 8.77344 11.8234C8.98935 11.5538 9.10725 11.2189 9.10781 10.8734C9.10781 10.7422 9.09062 10.6172 9.05937 10.5016H11.5V10.5ZM9.91094 8.70938C10.0578 8.9375 10.1766 9.18281 10.2625 9.4375H8.9375V7.72969C9.32733 7.98408 9.65904 8.31793 9.91094 8.70938ZM4.0625 6.54844V3.98125L6 1.68438L7.9375 3.98125V9.4375H4.0625V6.54844ZM1.7375 9.4375C1.82344 9.18281 1.94219 8.9375 2.08906 8.70938C2.34375 8.31563 2.675 7.98281 3.0625 7.72969V9.4375H1.7375ZM7.81406 11.2531C7.73281 11.3 7.63906 11.3187 7.54688 11.3062L7.24219 11.2688L7.19844 11.5719C7.11406 12.1641 6.59844 12.6109 6 12.6109C5.40156 12.6109 4.88594 12.1641 4.80156 11.5719L4.75781 11.2672L4.45312 11.3062C4.3605 11.3173 4.26678 11.2981 4.18594 11.2516C4.05 11.1734 3.96562 11.0281 3.96562 10.8703C3.96562 10.7047 4.05781 10.5672 4.19375 10.4984H7.80781C7.94531 10.5688 8.03594 10.7063 8.03594 10.8703C8.03437 11.0297 7.95 11.1766 7.81406 11.2531ZM5.25 5.25C5.25 5.44891 5.32902 5.63968 5.46967 5.78033C5.61032 5.92098 5.80109 6 6 6C6.19891 6 6.38968 5.92098 6.53033 5.78033C6.67098 5.63968 6.75 5.44891 6.75 5.25C6.75 5.05109 6.67098 4.86032 6.53033 4.71967C6.38968 4.57902 6.19891 4.5 6 4.5C5.80109 4.5 5.61032 4.57902 5.46967 4.71967C5.32902 4.86032 5.25 5.05109 5.25 5.25Z" fill="white"/>
</svg>
